<?xml version="1.0" standalone="no"?>
<!DOCTYPE svg PUBLIC "-//W3C//DTD SVG 20010904//EN"
 "http://www.w3.org/TR/2001/REC-SVG-20010904/DTD/svg10.dtd">
<svg version="1.0" xmlns="http://www.w3.org/2000/svg"
 width="1024.000000pt" height="1024.000000pt" viewBox="0 0 1024.000000 1024.000000"
 preserveAspectRatio="xMidYMid meet">

<g transform="translate(0.000000,1024.000000) scale(0.100000,-0.100000)"
fill="#000000" stroke="none">
<path d="M4878 8723 c12 -2 30 -2 40 0 9 3 -1 5 -23 4 -22 0 -30 -2 -17 -4z"/>
<path d="M5303 8723 c15 -2 39 -2 55 0 15 2 2 4 -28 4 -30 0 -43 -2 -27 -4z"/>
<path d="M4630 8704 c-119 -17 -193 -32 -160 -32 14 -1 95 10 180 23 85 13
137 23 115 23 -22 0 -83 -6 -135 -14z"/>
<path d="M5443 8713 c15 -2 39 -2 55 0 15 2 2 4 -28 4 -30 0 -43 -2 -27 -4z"/>
<path d="M4941 8706 c2 -2 112 -5 244 -8 132 -2 213 -1 180 3 -61 7 -432 12
-424 5z"/>
<path d="M5573 8703 c9 -2 23 -2 30 0 6 3 -1 5 -18 5 -16 0 -22 -2 -12 -5z"/>
<path d="M4827 8693 c18 -2 50 -2 70 0 21 2 7 4 -32 4 -38 0 -55 -2 -38 -4z"/>
<path d="M5660 8690 c25 -8 87 -13 79 -6 -2 2 -26 6 -54 9 -34 4 -42 3 -25 -3z"/>
<path d="M4660 8680 c-24 -8 -24 -8 7 -9 17 -1 35 4 38 9 7 11 -9 11 -45 0z"/>
<path d="M4738 8683 c12 -2 30 -2 40 0 9 3 -1 5 -23 4 -22 0 -30 -2 -17 -4z"/>
<path d="M5458 8683 c12 -2 32 -2 45 0 12 2 2 4 -23 4 -25 0 -35 -2 -22 -4z"/>
<path d="M4575 8670 l-30 -8 30 -1 c17 0 37 4 45 9 13 9 13 10 0 9 -8 -1 -28
-5 -45 -9z"/>
<path d="M4312 8648 c-51 -11 -91 -23 -89 -25 6 -6 128 16 179 32 63 20 16 16
-90 -7z"/>
<path d="M5663 8663 c9 -2 23 -2 30 0 6 3 -1 5 -18 5 -16 0 -22 -2 -12 -5z"/>
<path d="M5818 8663 c6 -2 18 -2 25 0 6 3 1 5 -13 5 -14 0 -19 -2 -12 -5z"/>
<path d="M4465 8653 c-46 -6 -187 -42 -194 -49 -3 -4 5 -4 19 0 14 3 72 15
130 27 128 26 148 36 45 22z"/>
<path d="M5835 8630 c72 -15 166 -37 210 -49 44 -11 91 -23 105 -26 l25 -6
-25 11 c-51 23 -190 59 -303 79 -161 29 -167 25 -12 -9z"/>
<path d="M5868 8653 c6 -2 18 -2 25 0 6 3 1 5 -13 5 -14 0 -19 -2 -12 -5z"/>
<path d="M5928 8643 c7 -3 16 -2 19 1 4 3 -2 6 -13 5 -11 0 -14 -3 -6 -6z"/>
<path d="M5980 8630 c34 -11 60 -11 35 0 -11 5 -29 8 -40 8 -16 0 -15 -2 5 -8z"/>
<path d="M4175 8615 c-5 -2 -36 -11 -68 -20 -32 -9 -57 -19 -54 -21 5 -5 99
19 137 34 23 10 9 16 -15 7z"/>
<path d="M4225 8600 c-11 -5 -33 -11 -49 -15 -15 -3 -26 -8 -23 -11 7 -8 97
17 97 27 0 10 1 10 -25 -1z"/>
<path d="M6088 8603 c7 -3 16 -2 19 1 4 3 -2 6 -13 5 -11 0 -14 -3 -6 -6z"/>
<path d="M4000 8560 c-18 -12 -2 -12 25 0 13 6 15 9 5 9 -8 0 -22 -4 -30 -9z"/>
<path d="M4118 8563 c7 -3 16 -2 19 1 4 3 -2 6 -13 5 -11 0 -14 -3 -6 -6z"/>
<path d="M3940 8543 c-218 -79 -415 -167 -585 -260 -221 -121 -594 -390 -579
-415 4 -7 2 -8 -4 -4 -25 15 -342 -305 -495 -500 -244 -311 -459 -710 -582
-1079 -193 -581 -246 -1176 -154 -1745 119 -734 514 -1485 1060 -2015 568
-551 1249 -880 2049 -992 180 -25 770 -25 950 0 496 70 924 217 1364 467 660
377 1242 1056 1534 1790 309 776 333 1661 67 2467 -104 312 -296 695 -478 953
-135 190 -351 440 -478 551 -35 31 -89 79 -119 107 -53 49 -82 63 -45 22 30
-33 2 -23 -38 14 -20 18 -47 41 -60 50 -12 8 -40 28 -62 44 -52 36 -65 44 -65
39 0 -3 35 -30 78 -62 42 -32 94 -74 115 -93 20 -20 37 -34 37 -31 0 13 281
-265 364 -361 480 -549 778 -1219 872 -1965 26 -198 26 -634 1 -834 -51 -408
-159 -764 -342 -1132 -413 -829 -1091 -1450 -1935 -1772 -660 -252 -1386 -302
-2105 -146 -282 62 -575 173 -860 325 -622 334 -1106 811 -1452 1432 -386 690
-533 1489 -412 2236 97 601 288 1078 627 1566 275 395 720 799 1135 1031 53
29 93 57 90 63 -3 5 -1 6 5 2 6 -3 67 21 137 54 126 61 289 127 420 170 39 13
65 25 59 27 -6 2 -56 -13 -110 -33 -54 -19 -103 -37 -109 -38 -13 -4 -36 -13
-102 -42 -29 -13 -53 -20 -53 -17 0 3 -6 1 -12 -5 -16 -13 -198 -92 -198 -86
0 2 48 27 108 55 59 28 114 55 124 60 9 4 60 24 115 44 142 52 170 64 153 64
-8 0 -22 -3 -30 -6z m-531 -257 c-10 -9 -69 -36 -69 -32 0 7 52 35 64 36 5 0
7 -2 5 -4z m-84 -46 c-3 -5 -12 -10 -18 -10 -7 0 -6 4 3 10 19 12 23 12 15 0z
m4188 -405 c21 -19 36 -39 33 -44 -5 -8 -86 64 -86 76 0 10 20 -1 53 -32z
m198 -192 c80 -82 158 -166 175 -188 16 -22 34 -44 40 -50 19 -18 160 -209
184 -250 13 -22 27 -42 30 -45 6 -5 77 -122 136 -225 16 -27 29 -54 29 -60 0
-5 3 -12 6 -15 11 -10 129 -260 129 -274 0 -8 3 -16 8 -18 9 -4 57 -125 105
-268 8 -25 18 -53 22 -62 4 -11 3 -18 -3 -18 -6 0 -14 16 -18 35 -3 19 -10 38
-15 41 -5 3 -9 16 -9 30 0 13 -4 24 -8 24 -4 0 -8 8 -9 18 -1 9 -20 62 -43
117 -23 55 -47 114 -53 130 -6 17 -41 90 -78 163 -38 72 -65 132 -61 132 4 0
2 4 -4 8 -5 4 -37 52 -69 107 -33 55 -91 144 -130 198 -38 54 -74 105 -80 114
-37 61 -214 264 -332 380 -62 62 -113 115 -113 118 0 17 32 -11 161 -142z
m876 -1504 c1 -11 9 -39 17 -62 16 -47 31 -145 16 -112 -5 11 -9 30 -9 43 -1
12 -10 48 -21 79 -22 63 -24 73 -12 73 4 0 8 -9 9 -21z m73 -288 c6 -34 9 -65
7 -68 -3 -2 -10 25 -16 61 -6 36 -14 74 -17 83 -5 15 -4 15 4 3 6 -8 15 -44
22 -79z"/>
<path d="M6265 8522 c10 -10 113 -50 150 -58 11 -3 -7 8 -40 24 -65 31 -127
50 -110 34z"/>
<path d="M6430 8490 c8 -5 20 -10 25 -10 6 0 3 5 -5 10 -8 5 -19 10 -25 10 -5
0 -3 -5 5 -10z"/>
<path d="M6460 8446 c14 -7 36 -16 50 -20 14 -3 7 3 -15 13 -45 22 -73 27 -35
7z"/>
<path d="M6521 8456 c10 -9 69 -36 69 -32 0 6 -55 36 -66 36 -4 0 -5 -2 -3 -4z"/>
<path d="M6610 8382 c19 -9 83 -40 143 -69 59 -29 107 -51 107 -48 0 6 -126
71 -208 107 -68 30 -100 38 -42 10z"/>
<path d="M6720 8357 c33 -17 90 -37 90 -32 0 9 -79 45 -97 45 -14 0 -12 -3 7
-13z"/>
<path d="M6836 8305 c10 -8 23 -15 28 -15 6 0 1 7 -10 15 -10 8 -23 15 -28 15
-6 0 -1 -7 10 -15z"/>
<path d="M6880 8286 c0 -3 14 -12 30 -21 17 -9 30 -13 30 -11 0 3 -13 12 -30
21 -16 9 -30 13 -30 11z"/>
<path d="M6890 8246 c0 -3 9 -10 20 -16 11 -6 20 -8 20 -6 0 3 -9 10 -20 16
-11 6 -20 8 -20 6z"/>
<path d="M6970 8236 c0 -3 9 -10 20 -16 11 -6 20 -8 20 -6 0 3 -9 10 -20 16
-11 6 -20 8 -20 6z"/>
<path d="M6960 8206 c0 -3 9 -10 20 -16 11 -6 20 -8 20 -6 0 3 -9 10 -20 16
-11 6 -20 8 -20 6z"/>
<path d="M7032 8194 c10 -10 20 -16 22 -13 3 3 -5 11 -17 18 -21 13 -21 12 -5
-5z"/>
<path d="M7015 8173 c25 -24 193 -131 189 -120 -2 7 -37 33 -77 58 -76 49
-129 78 -112 62z"/>
<path d="M7070 8175 c0 -4 129 -92 160 -109 8 -4 2 3 -14 16 -40 31 -146 100
-146 93z"/>
<path d="M7309 8007 c7 -9 36 -33 65 -53 28 -20 43 -28 33 -17 -22 26 -116 92
-98 70z"/>
<path d="M5876 6795 c-21 -22 -20 -58 2 -78 15 -14 48 -17 198 -19 l179 -3 48
-170 c55 -195 265 -908 305 -1036 l27 -87 -22 -48 c-46 -100 -18 -185 79 -235
94 -48 201 -7 243 94 l15 37 185 0 185 0 15 -37 c32 -77 86 -113 166 -113 162
0 240 192 123 302 -36 33 -74 48 -122 48 -48 -1 -113 -30 -139 -64 l-21 -26
-205 0 -205 0 -16 25 c-21 33 -69 56 -129 64 -46 6 -50 8 -63 46 -7 22 -14 41
-14 43 0 1 217 2 482 2 554 -1 503 -11 536 105 11 39 51 171 90 295 95 302
142 467 142 497 0 14 -13 37 -29 54 l-29 29 -741 0 -740 0 -11 43 c-26 100
-61 203 -75 222 -15 19 -30 20 -229 23 -186 3 -216 1 -230 -13z m912 -394 c9
-5 12 -24 10 -52 l-3 -44 -151 -3 -152 -3 -16 50 c-9 27 -16 52 -16 55 0 9
314 7 328 -3z m332 -46 l0 -55 -115 0 -115 0 0 48 c0 27 3 52 7 55 3 4 55 7
115 7 l108 0 0 -55z m320 0 l0 -55 -115 0 -115 0 0 48 c0 27 3 52 7 55 3 4 55
7 115 7 l108 0 0 -55z m392 49 c3 -3 0 -26 -6 -52 l-12 -47 -137 -3 -137 -3 0
56 0 55 143 0 c79 0 146 -2 149 -6z m-1032 -314 c0 -66 -3 -120 -6 -120 -3 0
-63 50 -132 112 -70 61 -131 115 -136 120 -6 4 54 8 132 8 l142 0 0 -120z
m300 114 c0 -10 -192 -214 -201 -214 -5 0 -9 50 -9 110 l0 110 105 0 c58 0
105 -3 105 -6z m344 -26 c3 -18 4 -72 3 -120 l-2 -87 -63 62 c-35 34 -86 88
-114 120 l-50 57 111 0 110 0 5 -32z m336 29 c0 -1 -54 -55 -120 -120 l-120
-117 0 120 0 120 120 0 c66 0 120 -1 120 -3z m-357 -309 c-2 -5 -51 -8 -109
-8 l-104 0 0 118 0 117 109 -110 c59 -60 106 -113 104 -117z m-303 102 l0
-110 -110 0 c-60 0 -110 4 -110 9 0 9 206 211 215 211 3 0 5 -49 5 -110z
m-431 -28 l84 -79 -83 1 -84 1 -27 95 c-16 52 -28 96 -29 98 -1 8 62 -45 139
-116z m1037 46 c-38 -139 -29 -128 -102 -128 -35 0 -64 3 -64 7 0 9 174 189
179 186 2 -1 -4 -31 -13 -65z m-958 -213 l32 -6 0 -69 0 -70 -65 0 -64 0 -11
38 c-5 20 -13 53 -16 72 l-6 35 49 3 c26 1 63 0 81 -3z m350 -72 l3 -73 -116
0 -115 0 0 68 c0 38 3 72 7 76 4 4 55 6 113 4 l105 -3 3 -72z m276 71 l46 -7
0 -68 0 -69 -115 0 -115 0 0 68 c0 38 3 72 7 75 8 9 116 9 177 1z m265 -14 c0
-8 -10 -42 -22 -75 -21 -58 -23 -60 -57 -60 l-35 0 -3 64 c-4 90 -2 93 63 89
41 -2 55 -7 54 -18z m-104 -465 c14 -13 25 -36 25 -50 0 -14 -11 -37 -25 -50
-13 -14 -36 -25 -50 -25 -31 0 -75 41 -75 70 0 69 77 103 125 55z m-733 -2
c40 -36 5 -123 -51 -123 -34 0 -71 37 -71 72 0 58 78 91 122 51z"/>
<path d="M4577 6560 c-16 -19 -17 -62 -17 -533 0 -431 2 -522 15 -565 19 -61
54 -106 105 -132 49 -25 180 -36 238 -21 49 14 62 36 62 107 0 59 -25 85 -74
77 -50 -8 -92 12 -105 49 -7 20 -11 199 -11 518 0 569 11 520 -116 520 -67 0
-82 -3 -97 -20z m197 -59 c7 -48 6 -66 -2 -69 -8 -2 -10 -17 -6 -42 3 -21 1
-46 -5 -56 -9 -16 -11 -11 -12 26 -1 30 -3 36 -6 18 -4 -27 -5 -28 -34 -12
-32 16 -31 34 2 34 11 0 19 7 19 16 0 8 -5 12 -10 9 -10 -6 -68 29 -82 50 -4
5 -5 -6 -2 -25 3 -19 1 -46 -5 -60 -8 -21 -10 -16 -12 35 l-2 60 -7 -55 c-6
-51 -7 -52 -9 -15 l-3 40 -14 -30 c-14 -29 -14 -27 -11 44 2 47 7 76 15 79 7
2 10 7 7 11 -2 5 35 8 83 7 l87 -1 9 -64z m-117 -133 c-3 -8 -6 -5 -6 6 -1 11
2 17 5 13 3 -3 4 -12 1 -19z m80 -125 c-2 -16 -4 -3 -4 27 0 30 2 43 4 28 2
-16 2 -40 0 -55z"/>
<path d="M4618 6544 c-8 -7 2 -44 12 -44 4 0 5 11 2 25 -5 27 -6 28 -14 19z"/>
<path d="M4590 6494 c0 -8 5 -12 10 -9 6 4 8 11 5 16 -9 14 -15 11 -15 -7z"/>
<path d="M5750 6570 c-11 -8 -7 -9 15 -4 37 8 45 14 19 14 -10 0 -26 -5 -34
-10z"/>
<path d="M5875 6560 c3 -5 20 -19 38 -31 l32 -21 -34 31 c-34 31 -47 39 -36
21z"/>
<path d="M5680 6508 c-37 -62 -20 -151 39 -201 59 -49 137 -47 196 5 31 26 62
94 50 107 -3 2 -8 -9 -11 -25 -6 -29 -25 -58 -56 -82 -13 -10 -22 -11 -40 -2
-22 11 -22 10 -4 -4 19 -15 16 -16 -33 -16 -64 0 -83 10 -121 62 -22 31 -30
52 -30 85 0 42 5 47 40 44 11 -1 11 1 -2 9 -10 6 -18 16 -18 21 0 6 4 8 9 5 5
-3 11 1 15 9 10 28 -14 15 -34 -17z"/>
<path d="M5941 6495 c1 -19 18 -51 18 -35 0 8 -4 22 -9 30 -5 8 -9 11 -9 5z"/>
<path d="M2241 6473 c-21 -18 -21 -21 -22 -568 0 -303 3 -558 6 -567 4 -10 22
-20 41 -24 50 -9 162 0 176 14 10 10 14 101 18 359 l5 346 89 -144 c216 -349
215 -349 289 -349 26 0 45 7 60 23 12 12 85 125 162 252 l140 230 5 -358 c4
-303 7 -359 20 -367 20 -13 176 -13 201 0 18 10 19 27 19 575 l0 564 -22 15
c-33 24 -45 19 -14 -5 l26 -20 0 -187 c-1 -156 -3 -183 -13 -164 -7 12 -16 20
-19 17 -3 -3 -9 50 -13 117 -5 79 -10 116 -16 103 -6 -17 -8 -16 -10 10 -2 17
-2 41 -1 54 1 16 -2 21 -9 14 -7 -7 -26 -7 -57 -1 -71 15 -107 14 -98 -1 10
-15 -18 -31 -34 -19 -13 8 -12 9 2 5 24 -8 30 4 10 20 -16 12 -16 13 1 7 13
-5 16 -2 11 10 -8 22 25 35 116 45 l75 8 -80 2 c-57 1 -87 -3 -102 -14 -28
-19 -86 -121 -78 -135 4 -6 1 -9 -5 -8 -10 3 -57 -73 -273 -440 -13 -22 -21
-10 -182 265 -93 158 -179 298 -192 311 -20 20 -32 22 -116 22 -76 0 -99 -4
-116 -17z m1012 -70 c-7 -2 -19 -2 -25 0 -7 3 -2 5 12 5 14 0 19 -2 13 -5z
m-83 -34 c0 -5 -5 -7 -11 -3 -8 4 -9 -1 -5 -17 6 -20 5 -21 -4 -6 -11 18 -6
37 11 37 5 0 9 -5 9 -11z"/>
<path d="M3245 6450 c-30 -6 -30 -6 -5 -13 13 -3 29 -2 34 3 14 14 5 17 -29
10z"/>
<path d="M5102 6407 c-6 -7 -13 -64 -14 -126 l-3 -112 -74 -5 c-41 -3 -81 -10
-88 -16 -8 -6 -13 -33 -13 -68 0 -83 16 -99 105 -102 l70 -3 5 -250 c6 -263 9
-280 56 -343 40 -52 96 -75 196 -80 102 -5 188 4 213 22 22 16 33 113 16 145
-11 19 -20 21 -96 21 -94 0 -128 11 -144 47 -7 15 -11 101 -11 233 l0 210 106
0 c139 0 144 3 144 89 0 93 -5 96 -143 96 l-109 0 1 115 c1 63 -1 111 -6 107
-4 -4 -6 -41 -5 -82 2 -52 -1 -75 -9 -75 -8 0 -8 -4 -1 -13 7 -8 7 -18 2 -27
-13 -20 -12 -33 0 -25 6 3 10 0 10 -8 0 -11 22 -13 114 -10 92 2 116 0 126
-12 11 -13 10 -18 -6 -31 -19 -15 -19 -15 0 -10 16 6 17 4 6 -9 -12 -15 -14
-15 -22 -1 -11 19 -50 22 -46 3 2 -7 -1 -13 -7 -14 -5 -1 -9 5 -7 13 2 8 -4
14 -13 14 -8 0 -15 -9 -15 -20 0 -19 -5 -21 -51 -19 -50 3 -85 21 -74 40 4 5
15 9 26 9 30 0 22 20 -8 21 -40 1 -58 11 -58 34 1 23 -31 84 -54 103 -8 6 -34
12 -58 12 -38 0 -43 -3 -43 -22 0 -13 -5 -30 -10 -38 -7 -10 -10 12 -10 71 0
119 3 122 117 118 50 -2 89 -1 86 4 -8 13 -190 8 -201 -6z m-162 -282 c-7 -9
-15 -13 -17 -11 -7 7 7 26 19 26 6 0 6 -6 -2 -15z m53 8 c-7 -2 -19 -2 -25 0
-7 3 -2 5 12 5 14 0 19 -2 13 -5z m-31 -29 c-12 -8 -20 -20 -17 -25 4 -5 1 -9
-4 -9 -27 0 2 49 29 50 9 0 6 -6 -8 -16z m8 -45 c-12 -40 -4 -57 28 -62 21 -3
18 -4 -10 -6 -31 -1 -38 2 -38 18 0 33 12 81 21 81 4 0 4 -14 -1 -31z m-32
-45 c-3 -14 -5 -12 -10 9 -3 19 -2 25 4 19 6 -6 8 -18 6 -28z m599 -6 c-3 -8
-6 -5 -6 6 -1 11 2 17 5 13 3 -3 4 -12 1 -19z m-157 8 c0 -3 -4 -8 -10 -11 -5
-3 -10 -1 -10 4 0 6 5 11 10 11 6 0 10 -2 10 -4z m-65 -26 c-3 -5 -12 -10 -18
-10 -7 0 -6 4 3 10 19 12 23 12 15 0z"/>
<path d="M5111 6354 c0 -11 3 -14 6 -6 3 7 2 16 -1 19 -3 4 -6 -2 -5 -13z"/>
<path d="M5138 6323 c12 -2 32 -2 45 0 12 2 2 4 -23 4 -25 0 -35 -2 -22 -4z"/>
<path d="M3615 6154 c-14 -15 -16 -51 -13 -323 3 -305 3 -306 29 -361 52 -111
128 -161 258 -168 105 -6 177 10 240 53 53 35 61 35 61 0 0 -37 19 -45 112
-45 129 0 120 -34 114 442 -6 353 -8 394 -23 406 -26 19 -177 16 -197 -4 -14
-13 -16 -52 -16 -267 0 -230 -2 -254 -20 -291 -62 -127 -266 -137 -314 -16
-13 33 -16 85 -16 300 0 256 0 259 -22 274 -32 23 -170 22 -193 0z m773 -6 c7
-6 12 -33 11 -67 -1 -43 -3 -50 -9 -31 -5 14 -9 18 -10 10 -1 -8 -5 -1 -9 15
-4 17 -2 33 4 37 6 5 6 8 -2 8 -6 0 -14 -4 -18 -10 -10 -16 -35 1 -35 25 0 18
6 23 28 23 15 0 33 -5 40 -10z m-168 -40 c0 -6 -6 -5 -15 2 -8 7 -15 14 -15
16 0 2 7 1 15 -2 8 -4 15 -11 15 -16z m177 -250 c-2 -13 -4 -3 -4 22 0 25 2
35 4 23 2 -13 2 -33 0 -45z"/>
<path d="M5722 6154 l-22 -15 0 -398 c0 -468 -10 -431 117 -431 65 0 83 3 96
18 15 17 17 60 17 415 0 346 -2 398 -16 411 -22 22 -161 22 -192 0z m11 -25
c-6 -6 -9 -19 -6 -28 3 -12 2 -12 -7 2 -9 14 -9 22 1 33 6 8 14 12 17 9 3 -3
1 -10 -5 -16z m37 11 c0 -5 -4 -10 -10 -10 -5 0 -10 5 -10 10 0 6 5 10 10 10
6 0 10 -4 10 -10z m75 0 c3 -5 -3 -10 -14 -10 -12 0 -21 5 -21 10 0 6 6 10 14
10 8 0 18 -4 21 -10z m72 -322 c-3 -8 -6 -5 -6 6 -1 11 2 17 5 13 3 -3 4 -12
1 -19z"/>
<path d="M2222 5172 c-9 -7 -12 -96 -10 -413 l3 -404 280 -3 c254 -2 281 -1
293 15 15 22 16 105 0 121 -9 9 -72 12 -220 12 l-208 0 0 100 0 100 176 0
c102 0 183 4 195 10 15 8 19 21 19 60 0 79 -3 80 -211 80 l-179 0 0 90 0 90
203 0 c153 0 208 3 221 13 21 15 29 78 15 115 l-8 22 -278 0 c-153 0 -284 -4
-291 -8z"/>
<path d="M3641 4949 c-153 -26 -251 -146 -251 -307 0 -38 7 -89 16 -115 21
-63 83 -130 152 -164 48 -23 70 -28 137 -28 71 0 88 4 148 33 72 36 104 69
138 147 84 189 -24 398 -225 434 -33 6 -60 10 -60 10 -1 -1 -25 -5 -55 -10z
m146 -160 c62 -38 91 -147 59 -222 -7 -18 -28 -45 -45 -61 -25 -24 -42 -30
-88 -33 -111 -8 -178 64 -171 182 8 135 132 202 245 134z"/>
<path d="M3060 4941 c-170 -52 -260 -234 -203 -411 22 -69 87 -141 155 -171
104 -46 262 -26 335 43 31 29 29 40 -11 83 l-35 37 -47 -28 c-60 -35 -133 -38
-184 -9 -42 25 -80 95 -80 149 0 55 36 125 80 154 47 32 139 28 189 -7 l33
-23 39 38 c21 21 39 46 39 56 0 22 -54 63 -109 83 -45 16 -158 19 -201 6z"/>
<path d="M4276 4925 c-56 -30 -52 -30 -59 -5 -4 17 -14 20 -60 20 -34 0 -59
-5 -66 -14 -8 -9 -11 -95 -9 -292 l3 -279 70 0 70 0 5 192 c5 174 7 194 26
220 44 59 115 67 171 18 l28 -23 3 -198 c2 -121 7 -203 14 -211 12 -14 105
-18 126 -5 9 7 13 56 15 193 2 156 5 189 20 217 39 71 140 78 184 13 22 -32
23 -43 23 -223 0 -186 0 -189 23 -199 14 -6 41 -7 72 -2 l50 8 3 200 c3 223
-3 262 -51 320 -41 51 -97 75 -175 75 -68 0 -113 -15 -165 -54 l-34 -26 -19
21 c-57 64 -183 79 -268 34z"/>
<path d="M5288 4930 c-20 -11 -40 -25 -44 -32 -6 -9 -10 -5 -14 12 -6 23 -10
25 -70 25 l-65 0 -3 -289 c-2 -225 1 -291 10 -298 18 -11 96 -10 119 2 18 10
19 23 19 188 0 205 8 234 73 266 33 16 45 17 78 7 68 -21 74 -38 78 -262 l3
-198 27 -6 c14 -3 46 -2 71 3 l45 8 5 194 c5 210 10 229 60 255 56 29 125 10
148 -40 8 -17 12 -88 12 -208 0 -100 4 -188 9 -195 5 -9 27 -12 72 -10 l64 3
0 225 0 225 -28 48 c-20 34 -41 54 -77 72 -90 45 -228 28 -285 -35 -17 -19
-18 -19 -55 10 -20 16 -49 34 -64 40 -45 17 -147 11 -188 -10z"/>
<path d="M6247 4936 c-76 -27 -144 -97 -172 -175 -22 -62 -19 -178 5 -243 64
-173 308 -243 467 -135 69 47 72 57 34 105 l-33 40 -50 -31 c-66 -41 -165 -49
-216 -18 -35 23 -72 75 -72 105 0 18 10 18 207 15 l208 -4 13 27 c16 34 1 131
-28 189 -25 49 -91 104 -148 123 -55 19 -163 20 -215 2z m185 -132 c31 -16 58
-51 58 -75 0 -14 -20 -17 -136 -23 -75 -4 -139 -4 -142 -1 -10 10 27 74 53 91
52 34 110 37 167 8z"/>
<path d="M6930 4934 c-19 -8 -42 -22 -51 -30 -15 -13 -17 -12 -23 11 -6 23
-11 25 -60 25 -33 0 -58 -5 -65 -14 -8 -9 -11 -95 -9 -292 l3 -279 70 0 70 0
5 185 c4 155 8 190 23 213 30 47 61 60 127 55 69 -5 87 7 97 65 8 53 -21 77
-94 77 -32 -1 -74 -8 -93 -16z"/>
<path d="M7320 4941 c-86 -28 -151 -83 -191 -161 -34 -65 -34 -203 0 -277 27
-61 84 -116 150 -146 96 -45 257 -22 328 45 31 29 29 48 -10 86 l-34 33 -44
-25 c-64 -37 -117 -42 -171 -18 -65 28 -92 71 -96 152 -5 103 44 169 139 185
35 6 51 2 101 -24 l60 -31 34 28 c39 32 52 66 33 88 -31 38 -112 67 -194 70
-44 2 -91 0 -105 -5z"/>
<path d="M7847 4936 c-128 -46 -205 -171 -195 -314 9 -125 69 -216 173 -264
68 -31 198 -32 265 -2 54 25 110 70 110 90 0 7 -14 29 -31 48 l-30 35 -45 -32
c-39 -27 -56 -32 -117 -35 -62 -3 -77 -1 -106 20 -41 27 -76 82 -67 104 5 13
32 14 210 8 200 -7 204 -7 215 14 30 57 0 177 -61 247 -58 66 -123 95 -213 94
-38 0 -87 -6 -108 -13z m168 -125 c38 -17 87 -82 73 -96 -3 -3 -67 -9 -142
-12 -125 -6 -136 -5 -136 11 0 34 35 79 75 97 50 23 79 23 130 0z"/>
<path d="M2230 3941 l0 -149 24 -4 c38 -8 115 -1 147 12 44 19 69 67 69 135 0
107 -54 155 -174 155 l-66 0 0 -149z m150 92 c57 -33 70 -130 24 -176 -23 -23
-106 -48 -119 -35 -3 3 -8 192 -6 221 2 14 73 7 101 -10z"/>
<path d="M3360 3993 c0 -142 9 -204 29 -202 9 2 31 -1 49 -5 77 -18 132 27
132 109 0 50 -22 83 -67 101 -30 13 -38 13 -64 0 l-29 -14 0 54 c0 51 -1 54
-25 54 -25 0 -25 0 -25 -97z m150 -43 c43 -43 13 -130 -44 -130 -63 0 -86 106
-32 142 20 14 56 8 76 -12z"/>
<path d="M5600 4036 l0 -54 -27 13 c-87 43 -167 -69 -118 -164 17 -34 65 -56
102 -47 16 4 40 7 56 6 l27 0 0 150 c0 143 -1 150 -20 150 -18 0 -20 -7 -20
-54z m-19 -76 c15 -9 19 -22 19 -66 0 -48 -3 -56 -24 -65 -35 -16 -75 -3 -86
27 -15 39 -12 68 10 92 23 24 50 28 81 12z"/>
<path d="M6170 4039 c0 -48 -1 -50 -22 -42 -74 25 -138 -22 -138 -103 0 -87
40 -118 139 -107 l61 6 0 148 c0 142 -1 149 -20 149 -17 0 -20 -7 -20 -51z
m-18 -86 c22 -20 24 -80 2 -111 -33 -48 -104 -12 -104 53 0 62 60 96 102 58z"/>
<path d="M7253 4079 c-17 -17 -4 -39 24 -39 20 0 24 4 21 22 -3 26 -28 34 -45
17z"/>
<path d="M2564 4000 c-82 -33 -80 -172 3 -206 50 -21 118 -9 118 21 0 20 -6
21 -57 9 -33 -8 -78 18 -78 44 0 15 9 17 75 14 l75 -4 0 32 c0 44 -16 69 -55
86 -39 16 -51 16 -81 4z m81 -50 c25 -28 10 -38 -47 -32 -50 4 -63 22 -30 41
27 16 57 13 77 -9z"/>
<path d="M2772 4000 c-62 -26 -45 -100 28 -120 45 -12 57 -25 40 -45 -14 -17
-61 -20 -76 -5 -13 13 -46 2 -41 -14 6 -17 49 -36 85 -36 22 0 41 8 57 25 44
44 27 89 -40 106 -52 13 -62 24 -44 45 10 12 23 14 50 10 40 -6 57 5 35 23
-19 16 -68 22 -94 11z"/>
<path d="M2974 3994 c-39 -19 -57 -51 -57 -103 0 -49 21 -84 62 -101 56 -23
143 10 106 40 -12 10 -19 10 -27 2 -18 -18 -53 -14 -79 7 -17 13 -23 29 -23
56 0 63 50 89 117 60 13 -5 17 -2 17 14 0 38 -63 52 -116 25z"/>
<path d="M3672 4001 c-7 -4 -24 -6 -38 -3 l-24 4 0 -106 c0 -99 1 -106 20
-106 18 0 20 7 20 79 0 88 11 108 55 97 18 -5 27 -2 32 10 10 27 -35 44 -65
25z"/>
<path d="M3815 4001 c-81 -34 -84 -165 -5 -206 35 -18 56 -19 99 -4 21 8 31
17 29 28 -4 16 -9 16 -71 4 -21 -4 -35 1 -53 18 -13 12 -24 26 -24 31 0 4 36
8 80 8 l80 0 0 31 c0 41 -15 66 -50 84 -32 16 -55 18 -85 6z m80 -47 c26 -26
12 -39 -43 -41 -53 -1 -60 4 -42 38 13 24 62 26 85 3z"/>
<path d="M4387 4003 c-4 -3 -25 -6 -47 -5 l-40 2 0 -105 0 -105 25 0 c25 0 25
1 25 84 0 67 3 85 16 90 57 22 84 -12 84 -106 0 -61 2 -68 20 -68 18 0 20 7
20 81 0 76 -2 82 -29 110 -28 27 -60 37 -74 22z"/>
<path d="M4707 4003 c-4 -3 -23 -6 -42 -5 l-35 1 0 -104 c0 -98 1 -105 20
-105 18 0 20 7 20 80 0 70 2 81 21 90 11 6 30 10 42 8 20 -3 22 -9 25 -90 3
-86 3 -88 27 -88 24 0 25 2 25 78 0 80 9 102 41 102 36 0 49 -28 49 -106 0
-67 2 -74 20 -74 18 0 20 7 20 83 0 57 -5 89 -15 104 -20 28 -67 38 -102 21
-23 -11 -33 -11 -53 -1 -28 14 -53 17 -63 6z"/>
<path d="M5282 4001 c-7 -4 -24 -6 -38 -3 l-24 4 0 -106 c0 -99 1 -106 20
-106 18 0 20 7 20 78 0 86 8 102 52 102 37 0 48 -24 48 -109 0 -64 2 -71 20
-71 19 0 20 7 20 89 0 85 -1 91 -26 110 -27 22 -69 27 -92 12z"/>
<path d="M5733 3991 c-51 -32 -67 -84 -43 -145 24 -65 127 -84 177 -33 28 28
40 89 24 129 -22 57 -104 83 -158 49z m106 -47 c12 -15 21 -38 21 -51 0 -31
-42 -73 -74 -73 -29 0 -66 42 -66 75 0 35 37 75 70 75 19 0 36 -9 49 -26z"/>
<path d="M6294 3991 c-42 -26 -59 -75 -44 -131 15 -55 58 -83 118 -77 49 5 68
18 58 42 -4 12 -10 14 -25 5 -31 -16 -69 -12 -91 10 -33 33 -24 40 55 40 l75
0 0 34 c0 48 -8 65 -41 81 -38 20 -68 19 -105 -4z m100 -43 c22 -31 12 -38
-50 -38 -45 0 -54 3 -54 18 0 45 76 60 104 20z"/>
<path d="M6615 4001 c-52 -22 -81 -108 -53 -160 49 -92 191 -67 205 35 12 90
-71 158 -152 125z m95 -51 c28 -28 26 -75 -5 -105 -13 -14 -33 -25 -45 -25
-28 0 -70 44 -70 73 0 64 77 100 120 57z"/>
<path d="M6870 4001 c-8 -5 -27 -7 -42 -4 l-28 6 0 -147 0 -146 26 0 c23 0 25
4 24 33 -3 56 -3 57 27 46 98 -37 179 100 106 181 -30 33 -87 48 -113 31z m79
-57 c28 -35 26 -69 -4 -99 -43 -44 -91 -26 -102 37 -12 78 60 120 106 62z"/>
<path d="M7113 4003 c-12 -2 -33 -16 -47 -30 -21 -21 -26 -35 -26 -77 0 -59
16 -88 59 -106 36 -14 93 -6 112 16 10 13 10 17 -2 24 -8 6 -18 5 -23 0 -15
-15 -59 -12 -84 6 -16 11 -22 25 -22 55 0 64 48 97 102 68 15 -8 23 -8 31 0
25 25 -45 56 -100 44z"/>
<path d="M7393 3995 c-93 -40 -76 -192 24 -211 39 -7 88 10 108 40 20 27 19
110 -1 141 -14 21 -61 46 -88 45 -6 -1 -25 -7 -43 -15z m96 -51 c12 -15 21
-38 21 -51 0 -31 -42 -73 -74 -73 -28 0 -66 42 -66 72 0 22 18 60 34 70 24 17
65 8 85 -18z"/>
<path d="M7648 3996 c-16 -8 -28 -11 -28 -5 0 5 -9 9 -20 9 -19 0 -20 -7 -20
-105 0 -96 2 -105 19 -105 17 0 19 9 23 80 3 87 13 102 58 98 35 -4 51 -42 48
-116 -3 -59 -2 -62 21 -62 23 0 23 1 20 86 -4 79 -6 87 -32 110 -32 28 -51 30
-89 10z"/>
<path d="M7865 4001 c-85 -37 -84 -172 2 -207 60 -26 158 5 125 38 -9 9 -18 8
-37 0 -14 -7 -34 -12 -44 -12 -20 0 -71 36 -71 50 0 5 37 10 83 12 l82 3 -3
35 c-1 20 -12 45 -25 58 -25 25 -81 36 -112 23z m83 -43 c7 -7 12 -20 12 -30
0 -15 -8 -17 -57 -14 -44 2 -57 6 -55 17 8 35 74 53 100 27z"/>
<path d="M8073 4000 c-60 -25 -47 -96 22 -118 51 -17 61 -27 45 -47 -15 -17
-61 -20 -77 -4 -14 14 -33 3 -33 -17 0 -20 48 -37 89 -30 44 7 71 32 71 67 0
29 -17 44 -75 64 -34 11 -45 42 -19 52 9 3 30 1 46 -5 24 -9 30 -8 35 4 3 9 1
20 -4 25 -14 14 -75 20 -100 9z"/>
<path d="M3132 3913 c4 -79 7 -88 32 -110 23 -19 35 -22 79 -18 29 2 58 4 65
5 9 0 12 28 12 105 0 98 -1 105 -20 105 -18 0 -20 -7 -20 -74 0 -81 -13 -106
-54 -106 -37 0 -46 19 -46 102 0 78 0 78 -26 78 l-27 0 5 -87z"/>
<path d="M4072 3909 c3 -82 5 -93 28 -111 20 -16 33 -19 65 -13 22 3 50 6 63
6 21 -1 22 2 22 104 0 98 -1 105 -20 105 -18 0 -20 -7 -20 -78 0 -86 -8 -102
-52 -102 -37 0 -48 24 -48 109 0 65 -2 71 -21 71 -20 0 -21 -4 -17 -91z"/>
<path d="M4985 3913 c6 -77 10 -91 32 -111 21 -19 33 -22 57 -17 17 3 43 6 57
6 25 0 26 3 33 67 3 37 6 84 6 105 0 33 -3 37 -25 37 -25 0 -25 -1 -25 -78 0
-82 -9 -102 -45 -102 -36 0 -45 20 -45 102 0 77 0 78 -26 78 l-26 0 7 -87z"/>
<path d="M7250 3895 l0 -105 26 0 26 0 -3 88 c-3 109 -7 122 -30 122 -17 0
-19 -9 -19 -105z"/>
</g>
</svg>
